<svg width="80" height="26" viewBox="0 0 80 26" fill="none" xmlns="http://www.w3.org/2000/svg">
<g id="IMAGE">
<path id="Vector" d="M34.3321 15.0157C34.3321 11.9347 32.5386 9.61422 29.7614 9.61422C28.5271 9.61422 27.4857 10.1407 26.7336 11.1547V6.22122H24.0529V20.2222H26.5214V18.7207C27.3121 19.8127 28.4307 20.4172 29.7614 20.4172C32.5386 20.4172 34.3321 18.0577 34.3321 15.0157ZM31.5743 15.0157C31.5743 16.9657 30.475 17.9992 29.1636 17.9992C27.8329 17.9992 26.7529 16.9462 26.7529 14.9767C26.7529 13.0072 27.8714 12.0127 29.1636 12.0127C30.475 12.0127 31.5743 13.0267 31.5743 15.0157ZM37.7856 20.2222V6.22122H35.0856V20.2222H37.7856ZM45.3581 20.2222H47.5374V13.6702C47.5374 11.1157 45.956 9.61422 43.256 9.61422C40.7681 9.61422 39.0517 11.1742 38.8974 13.5727H41.3081C41.4046 12.4027 42.0989 11.7202 43.256 11.7202C44.3746 11.7202 45.0303 12.4027 45.0303 13.5727V14.1967C44.3939 14.1187 43.8924 14.0797 43.3139 14.0797C40.3053 14.0797 38.6853 15.1717 38.6853 17.1997C38.6853 19.1497 40.1124 20.4172 42.2531 20.4172C43.661 20.4172 44.6831 19.9102 45.3581 18.9352V20.2222ZM41.2117 17.1217C41.2117 16.1857 41.9639 15.6982 43.4874 15.6982C43.9503 15.6982 44.3939 15.7372 45.0303 15.8347V16.5757C45.0303 17.7847 44.201 18.5452 42.8317 18.5452C41.8289 18.5452 41.2117 17.9992 41.2117 17.1217ZM51.5639 14.5477C51.5639 12.8707 52.4704 12.0127 53.5311 12.0127C54.7461 12.0127 55.3439 12.8707 55.3439 14.4112V20.2222H58.0054V13.4947C58.0054 10.9792 56.5782 9.61422 54.5146 9.61422C53.1646 9.61422 52.1039 10.2577 51.3518 11.2912V9.80922H48.8832V20.2222H51.5639V14.5477ZM62.0317 20.2222V15.3862L65.966 20.2222H69.3796L64.616 14.8012L68.8781 9.80922H65.7924L62.0317 14.2162V6.22122H59.351V20.2222H62.0317ZM73.56 20.4172C76.5493 20.4172 78.7864 18.0382 78.7864 15.0157C78.7864 11.9737 76.5493 9.61422 73.56 9.61422C70.5711 9.61422 68.3339 11.9737 68.3339 15.0157C68.3339 18.0382 70.5711 20.4172 73.56 20.4172ZM73.56 18.0187C72.2293 18.0187 71.0918 16.9462 71.0918 15.0157C71.0918 13.0852 72.2293 12.0322 73.56 12.0322C74.8907 12.0322 76.0286 13.0852 76.0286 15.0157C76.0286 16.9462 74.8907 18.0187 73.56 18.0187Z" fill="white"/>
<path id="Vector_2" d="M15.7143 4.33333H12.1428V16.6111H15.7143V4.33333Z" fill="#FF7043"/>
<path id="Vector_3" d="M12.1428 20.2222V16.6111H-3.52859e-05V20.2222H12.1428Z" fill="#FF7043"/>
<path id="Vector_4" d="M15.7142 7.94445V4.33333L3.57138 4.33333V7.94445L15.7142 7.94445Z" fill="#FF7043"/>
<path id="Vector_5" d="M-1.7643e-05 20.2222H3.57141L3.57141 7.94444H-1.7643e-05L-1.7643e-05 20.2222Z" fill="#FF7043"/>
</g>
</svg>
